<?xml version="1.0" standalone="no"?>
<!DOCTYPE svg PUBLIC "-//W3C//DTD SVG 20010904//EN"
 "http://www.w3.org/TR/2001/REC-SVG-20010904/DTD/svg10.dtd">
<svg version="1.0" xmlns="http://www.w3.org/2000/svg"
 width="1200.000000pt" height="1200.000000pt" viewBox="0 0 1200.000000 1200.000000"
 preserveAspectRatio="xMidYMid meet">
<metadata>
Created by potrace 1.15, written by Peter Selinger 2001-2017
</metadata>
<g transform="translate(0.000000,1200.000000) scale(0.100000,-0.100000)"
fill="#000000" stroke="none">
<path d="M3806 7879 c-313 -46 -776 -301 -1181 -652 -681 -589 -1175 -1348
-1175 -1806 0 -161 65 -280 183 -332 79 -35 236 -39 365 -9 286 66 638 259
985 538 66 53 131 105 144 115 l23 19 0 -136 0 -136 80 0 80 0 0 212 0 211
118 121 c366 375 654 799 781 1150 96 268 91 500 -16 609 -85 88 -217 121
-387 96z m209 -193 c55 -23 75 -66 75 -164 0 -226 -153 -563 -422 -927 -61
-83 -88 -112 -88 -97 l0 22 -350 0 -350 0 0 -80 0 -80 135 0 135 0 0 -175 0
-175 -58 -55 c-498 -468 -1154 -798 -1380 -695 -55 25 -73 67 -73 164 -1 286
255 758 658 1216 410 465 936 858 1343 1004 151 54 305 71 375 42z m-556
-1353 c-13 -16 -52 -58 -86 -95 l-63 -66 0 94 0 94 87 0 86 0 -24 -27z"/>
<path d="M7760 6040 l0 -560 80 0 80 0 0 41 0 40 33 -25 c89 -68 217 -81 322
-32 98 44 144 101 171 209 40 156 -25 315 -154 378 -95 46 -279 23 -338 -42
-9 -10 -21 -19 -26 -19 -4 0 -8 128 -8 285 l0 285 -80 0 -80 0 0 -560z m452
-79 c63 -40 92 -101 86 -181 -3 -48 -10 -67 -34 -97 -47 -58 -78 -76 -138 -81
-46 -4 -65 0 -108 22 -78 38 -98 73 -98 172 0 68 4 85 24 115 55 81 182 104
268 50z"/>
<path d="M3854 6503 c19 -49 450 -1049 455 -1055 4 -4 98 207 211 469 113 263
217 506 232 540 l27 64 -96 -3 -97 -3 -130 -337 c-72 -186 -133 -338 -136
-338 -3 0 -67 152 -142 338 l-136 337 -97 3 c-90 3 -97 1 -91 -15z"/>
<path d="M5740 6000 l0 -520 340 0 340 0 0 80 0 80 -260 0 -260 0 0 440 0 440
-80 0 -80 0 0 -520z"/>
<path d="M6941 6110 c-157 -33 -258 -196 -232 -375 21 -145 96 -227 233 -255
84 -17 158 0 231 50 l57 41 0 -46 0 -45 78 0 79 0 0 305 0 305 -74 0 c-73 0
-73 0 -73 -27 0 -16 -4 -34 -9 -42 -7 -11 -12 -8 -25 11 -39 60 -168 98 -265
78z m211 -149 c61 -42 73 -67 76 -161 3 -76 1 -89 -20 -120 -48 -72 -159 -100
-237 -60 -190 96 -120 381 91 367 38 -2 67 -11 90 -26z"/>
</g>
</svg>
